<svg xmlns="http://www.w3.org/2000/svg" width="110" height="56" fill="none"><path fill="#8E8F99" d="M39.81 48.223c.016 0 .032.004.047.01a.123.123 0 0 1 .039.023l.22.208a1.818 1.818 0 0 1-.62.394c-.279.1-.579.148-.88.141a2.378 2.378 0 0 1-.829-.132 1.821 1.821 0 0 1-.624-.372 1.665 1.665 0 0 1-.403-.576 1.892 1.892 0 0 1-.14-.738 1.765 1.765 0 0 1 .151-.74c.097-.215.242-.41.428-.576.189-.163.414-.29.663-.376a2.64 2.64 0 0 1 .852-.132c.271-.005.54.036.793.12.218.082.419.194.593.333l-.185.222a.182.182 0 0 1-.047.04.129.129 0 0 1-.074.017.183.183 0 0 1-.08-.024l-.1-.059-.138-.075a1.604 1.604 0 0 0-.436-.133 1.96 1.96 0 0 0-.328-.023 1.81 1.81 0 0 0-.613.099 1.41 1.41 0 0 0-.48.278c-.138.129-.244.28-.312.444a1.47 1.47 0 0 0-.114.585 1.5 1.5 0 0 0 .114.594 1.26 1.26 0 0 0 .765.715c.18.064.373.096.568.094.113.002.225-.005.337-.019a1.348 1.348 0 0 0 .728-.304.175.175 0 0 1 .105-.038ZM46.186 47.18c.004.25-.047.5-.149.734-.09.213-.231.407-.416.57a1.92 1.92 0 0 1-.652.374 2.73 2.73 0 0 1-1.678 0 1.942 1.942 0 0 1-.65-.375 1.672 1.672 0 0 1-.419-.576 1.884 1.884 0 0 1 0-1.47c.094-.214.237-.41.42-.577.185-.157.406-.28.649-.361.54-.18 1.138-.18 1.678 0 .245.085.467.213.651.375a1.688 1.688 0 0 1 .566 1.307Zm-.58 0c.005-.2-.03-.399-.104-.589a1.213 1.213 0 0 0-.762-.72 1.973 1.973 0 0 0-1.22 0 1.319 1.319 0 0 0-.467.279 1.185 1.185 0 0 0-.298.441c-.14.384-.14.795 0 1.18.062.163.164.313.298.44.13.12.29.215.467.276a2.02 2.02 0 0 0 1.22 0c.177-.06.337-.155.466-.276.133-.128.233-.278.296-.44.074-.19.11-.39.104-.59ZM50.537 47.799l.058.132c.022-.047.041-.09.063-.132.021-.045.045-.088.072-.13l1.41-2.19c.028-.039.053-.062.08-.07a.389.389 0 0 1 .117-.011h.416v3.563h-.494v-2.73a.964.964 0 0 1 0-.123l-1.419 2.221a.203.203 0 0 1-.083.081.252.252 0 0 1-.12.03h-.08a.25.25 0 0 1-.122-.03.2.2 0 0 1-.083-.08l-1.46-2.236V48.954h-.478v-3.556h.417a.389.389 0 0 1 .116.012.155.155 0 0 1 .077.068l1.441 2.193c.028.04.052.084.072.128ZM55.845 47.622v1.334h-.552v-3.558h1.231c.233-.004.464.022.687.078.18.043.345.118.486.221a.921.921 0 0 1 .276.35c.065.145.097.299.094.455a.99.99 0 0 1-.4.811 1.42 1.42 0 0 1-.489.236c-.215.058-.44.086-.665.082l-.668-.01Zm0-.382h.668c.145.001.29-.017.428-.055a.94.94 0 0 0 .31-.153.674.674 0 0 0 .254-.535.593.593 0 0 0-.056-.29.688.688 0 0 0-.193-.243 1.202 1.202 0 0 0-.743-.191h-.668v1.467ZM63.264 48.961h-.436a.21.21 0 0 1-.122-.033.223.223 0 0 1-.071-.082l-.376-.861h-1.885l-.39.86a.196.196 0 0 1-.068.08.21.21 0 0 1-.124.036h-.437l1.657-3.563h.574l1.678 3.563Zm-2.733-1.323h1.557l-.657-1.45a2.332 2.332 0 0 1-.124-.335l-.064.186c-.019.057-.04.108-.06.15l-.652 1.45ZM65.65 45.414a.235.235 0 0 1 .083.064l2.415 2.686v-2.766h.494v3.563h-.276a.273.273 0 0 1-.113-.02.299.299 0 0 1-.088-.067l-2.413-2.684a.929.929 0 0 1 0 .123v2.648h-.494v-3.563h.292c.035-.001.069.004.1.016ZM72.71 47.544v1.415h-.552v-1.415l-1.526-2.146h.494a.201.201 0 0 1 .119.03c.03.024.055.05.074.08l.955 1.385a1.394 1.394 0 0 1 .168.316l.072-.153c.027-.056.059-.11.094-.163l.941-1.394a.376.376 0 0 1 .072-.075.186.186 0 0 1 .119-.035h.5l-1.53 2.155ZM50.264 39.417c.24.026.483.047.728.066 3.725-1.424 6.876-3.754 9.059-6.699 2.183-2.945 3.302-6.374 3.217-9.86l-4.105-3.507c.835 3.711.444 7.547-1.127 11.08-1.572 3.531-4.263 6.62-7.772 8.92Z"/><path fill="#8E8F99" d="m48.798 39.254.11.019c3.75-2.292 6.61-5.492 8.207-9.187 1.599-3.694 1.863-7.714.759-11.538l-5.846-4.996c2.364 4.106 3.316 8.701 2.744 13.251-.571 4.55-2.643 8.868-5.974 12.451ZM68.626 27.043c-.994 3.83-3.406 7.283-6.88 9.848a21.958 21.958 0 0 1-3.268 2.005c2.829-.71 5.428-1.966 7.599-3.67 2.17-1.704 3.853-3.812 4.92-6.16l-2.371-2.023Z"/><path fill="#8E8F99" d="m67.695 26.479-3.376-2.885c-.064 3.289-1.159 6.502-3.169 9.307-2.01 2.805-4.862 5.1-8.261 6.643h.016c.758 0 1.514-.038 2.267-.115 3.176-1.108 5.982-2.87 8.167-5.13 2.185-2.26 3.682-4.946 4.356-7.82ZM49.286 11.446 45.26 8c-3.6 1.189-6.697 3.278-8.884 5.995-2.188 2.718-3.364 5.936-3.375 9.234.014 3.643 1.449 7.18 4.08 10.048 2.63 2.868 6.305 4.905 10.442 5.789 3.694-3.845 5.857-8.597 6.174-13.564.317-4.967-1.228-9.89-4.41-14.056ZM77 25.948c-.015-4.324-2.031-8.466-5.61-11.523-3.577-3.058-8.426-4.78-13.486-4.793a21.774 21.774 0 0 0-6.838 1.087l24.659 21.068A14.088 14.088 0 0 0 77 25.947Z"/></svg>