<svg xmlns="http://www.w3.org/2000/svg" width="110" height="56" fill="none"><path fill="#8E8F99" d="M25.88 20.518h-.003c-2.385 0-4.32 1.744-4.32 3.894v.003c0 2.15 1.935 3.894 4.32 3.894h.003c2.386 0 4.32-1.743 4.32-3.894v-.003c0-2.15-1.934-3.894-4.32-3.894ZM57.763 19.273c-.007-2.988-1.326-5.85-3.668-7.964C51.752 9.197 48.576 8.007 45.263 8c-3.315.005-6.492 1.195-8.836 3.308-2.343 2.113-3.663 4.977-3.67 7.965v16.474s25.003-2.51 25.006-16.471v-.003ZM12.802 41.154c.006 2.079.924 4.071 2.554 5.541 1.63 1.47 3.84 2.299 6.145 2.305 2.305-.006 4.514-.834 6.143-2.304 1.63-1.47 2.549-3.46 2.556-5.54V29.695s-17.398 1.748-17.398 11.46Zm8.699 2.054c-.45 0-.891-.12-1.266-.346a2.115 2.115 0 0 1-.839-.922 1.867 1.867 0 0 1-.13-1.186 2 2 0 0 1 .624-1.052 2.365 2.365 0 0 1 1.166-.562c.442-.08.9-.039 1.316.117.417.155.773.419 1.023.756.25.338.384.735.384 1.141a1.88 1.88 0 0 1-.171.789c-.114.25-.282.477-.494.669a2.308 2.308 0 0 1-.74.447 2.496 2.496 0 0 1-.873.157v-.008ZM37.41 39.515v4.266h-.879v-4.266h.88Zm1.7 1.822v.686h-1.94v-.686h1.94Zm.205-1.822v.688H37.17v-.688h2.145Zm4.013 2.033v.202c0 .325-.044.616-.132.873a1.92 1.92 0 0 1-.372.66c-.16.18-.351.317-.574.413a1.83 1.83 0 0 1-.735.143c-.268 0-.513-.048-.736-.143a1.648 1.648 0 0 1-.574-.413 1.932 1.932 0 0 1-.378-.66 2.7 2.7 0 0 1-.132-.873v-.202c0-.326.044-.617.132-.873a1.92 1.92 0 0 1 .372-.659c.162-.182.354-.32.574-.416.223-.096.468-.144.736-.144.27 0 .514.048.735.144.223.096.414.234.574.416.163.182.288.401.375.66.09.255.135.546.135.872Zm-.888.202v-.208c0-.226-.02-.425-.061-.597a1.297 1.297 0 0 0-.182-.434.785.785 0 0 0-.293-.264.838.838 0 0 0-.395-.09c-.149 0-.28.03-.396.09a.792.792 0 0 0-.29.264 1.335 1.335 0 0 0-.178.434 2.593 2.593 0 0 0-.062.597v.208c0 .225.02.424.062.598.04.172.101.317.181.437.08.117.178.206.293.266.115.06.247.091.396.091.148 0 .28-.03.395-.09a.786.786 0 0 0 .29-.267 1.37 1.37 0 0 0 .179-.437c.04-.174.061-.373.061-.598Zm3.742.914a.565.565 0 0 0-.035-.205.387.387 0 0 0-.124-.17 1.089 1.089 0 0 0-.254-.155 3.587 3.587 0 0 0-.425-.158 5.377 5.377 0 0 1-.551-.211 2.265 2.265 0 0 1-.457-.272 1.23 1.23 0 0 1-.31-.367 1.01 1.01 0 0 1-.112-.483 1 1 0 0 1 .117-.483c.078-.147.188-.272.328-.375.141-.106.307-.187.498-.244.194-.056.406-.085.636-.085.315 0 .589.057.823.17.235.114.416.269.545.466.131.197.197.423.197.677h-.873a.658.658 0 0 0-.08-.328.535.535 0 0 0-.234-.226.835.835 0 0 0-.393-.082.908.908 0 0 0-.38.07.507.507 0 0 0-.229.185.455.455 0 0 0-.076.258c0 .072.017.138.053.196a.594.594 0 0 0 .164.164c.072.051.16.099.266.144.106.045.228.089.367.132.232.07.436.149.612.237.178.088.326.186.445.296.12.11.21.233.27.372.06.139.09.296.09.472 0 .185-.036.351-.108.498-.072.146-.177.27-.313.372-.137.101-.3.178-.49.231-.189.053-.401.08-.635.08-.211 0-.42-.028-.624-.083a1.894 1.894 0 0 1-.56-.255 1.285 1.285 0 0 1-.398-.433c-.1-.176-.15-.384-.15-.624h.882c0 .133.02.245.062.337a.563.563 0 0 0 .172.222.744.744 0 0 0 .27.123c.105.026.22.038.346.038a.939.939 0 0 0 .375-.064.463.463 0 0 0 .293-.437Zm3.383-3.149v4.266h-.875v-4.266h.875Zm1.313 0v.688h-3.48v-.688h3.48Zm3.363 3.58v.686h-2.27v-.686h2.27Zm-1.983-3.58v4.266h-.88v-4.266h.88Zm1.687 1.737v.668h-1.974v-.668h1.974Zm.293-1.737v.688h-2.267v-.688h2.267Zm.516 0h1.59c.327 0 .607.049.841.146.237.098.418.243.545.434.127.191.19.427.19.706 0 .229-.038.425-.116.589a1.103 1.103 0 0 1-.326.407 1.687 1.687 0 0 1-.489.258l-.278.147h-1.383l-.006-.686h1.029a.805.805 0 0 0 .383-.082.538.538 0 0 0 .229-.229.704.704 0 0 0 .079-.34.771.771 0 0 0-.076-.354.514.514 0 0 0-.232-.228.855.855 0 0 0-.39-.08h-.711v3.578h-.88v-4.266Zm2.385 4.266-.973-1.902.929-.006.984 1.867v.04h-.94Zm4.614-1.52h-1.087v-.686h1.087a.892.892 0 0 0 .41-.082.526.526 0 0 0 .232-.235.858.858 0 0 0 0-.691.591.591 0 0 0-.232-.264.76.76 0 0 0-.41-.1h-.782v3.578h-.88v-4.266h1.662c.334 0 .62.06.858.182.24.119.424.284.551.495.127.21.19.452.19.723 0 .276-.063.514-.19.715-.127.201-.31.357-.55.466-.239.11-.525.164-.86.164Zm5.068.834v.686h-2.27v-.686h2.27Zm-1.983-3.58v4.266h-.879v-4.266h.879Zm1.687 1.737v.668h-1.974v-.668h1.974Zm.293-1.737v.688h-2.267v-.688h2.267Zm2.482 0v4.266h-.876v-4.266h.876Zm1.312 0v.688h-3.48v-.688h3.48Zm3.364 3.58v.686h-2.27v-.686h2.27Zm-1.984-3.58v4.266h-.879v-4.266h.88Zm1.688 1.737v.668h-1.975v-.668h1.975Zm.293-1.737v.688h-2.268v-.688h2.268Zm.515 0h1.591c.326 0 .607.049.84.146.237.098.419.243.546.434.127.191.19.427.19.706 0 .229-.039.425-.117.589a1.103 1.103 0 0 1-.325.407 1.687 1.687 0 0 1-.49.258l-.278.147h-1.382l-.006-.686h1.028a.805.805 0 0 0 .384-.082.538.538 0 0 0 .228-.229.704.704 0 0 0 .08-.34.771.771 0 0 0-.077-.354.514.514 0 0 0-.231-.228.855.855 0 0 0-.39-.08h-.712v3.578h-.879v-4.266Zm2.385 4.266-.973-1.902.93-.006.984 1.867v.04h-.941Zm3.68-1.117a.565.565 0 0 0-.035-.205.387.387 0 0 0-.124-.17 1.088 1.088 0 0 0-.254-.155c-.11-.05-.251-.103-.425-.158a5.384 5.384 0 0 1-.55-.211 2.262 2.262 0 0 1-.458-.272 1.23 1.23 0 0 1-.31-.367 1.01 1.01 0 0 1-.112-.483 1 1 0 0 1 .117-.483c.079-.147.188-.272.329-.375.14-.106.306-.187.498-.244.193-.056.405-.085.635-.085.315 0 .59.057.823.17.235.114.416.269.545.466.131.197.197.423.197.677h-.873a.658.658 0 0 0-.08-.328.535.535 0 0 0-.234-.226.835.835 0 0 0-.392-.082.908.908 0 0 0-.381.07.507.507 0 0 0-.229.185.455.455 0 0 0-.076.258c0 .072.018.138.053.196a.594.594 0 0 0 .164.164c.072.051.161.099.266.144.106.045.228.089.367.132.232.07.436.149.612.237a1.9 1.9 0 0 1 .445.296c.12.11.21.233.27.372.06.139.09.296.09.472 0 .185-.035.351-.108.498-.072.146-.176.27-.313.372-.137.101-.3.178-.49.231-.189.053-.4.08-.635.08-.211 0-.42-.028-.624-.083a1.894 1.894 0 0 1-.56-.255 1.285 1.285 0 0 1-.398-.433c-.1-.176-.15-.384-.15-.624h.882c0 .133.02.245.062.337a.563.563 0 0 0 .172.222.743.743 0 0 0 .27.123c.105.026.22.038.346.038a.939.939 0 0 0 .375-.064.463.463 0 0 0 .293-.437Z"/></svg>