<svg xmlns="http://www.w3.org/2000/svg" width="110" height="56" fill="none"><path fill="#8E8F99" fill-rule="evenodd" d="m40.854 4 6.836 6.84L35 10.832v33.189h33.17v-12.69L75 38.166V4H40.854ZM67.87 30.528 48.486 11.133H67.87v19.395Zm-6.02 8.638H40.25v-22.32h1.527v20.809h20.076v1.511ZM44.595 50.092l-.825-1.697h-.681l1.196 2.246v1.309h.618V50.64l1.196-2.246h-.679l-.825 1.697Zm3.042-1.697h.147l1.343 3.555h-.645l-.288-.833h-1.376l-.287.833h-.642l1.338-3.555H47.636Zm-.651 2.236h1.04l-.52-1.508-.52 1.508Zm4.295-.589a11.565 11.565 0 0 1-.077-.1 1.827 1.827 0 0 1-.212-.348.86.86 0 0 1-.076-.352c0-.185.038-.345.115-.478a.77.77 0 0 1 .325-.308c.14-.073.303-.11.49-.11.18 0 .336.037.467.11a.766.766 0 0 1 .349.984.894.894 0 0 1-.169.254 1.729 1.729 0 0 1-.249.217l-.247.18.704.83a1.436 1.436 0 0 0 .153-.664h.508c0 .173-.017.337-.05.492a1.53 1.53 0 0 1-.26.586l.52.615h-.68l-.207-.243a1.384 1.384 0 0 1-.365.199 1.621 1.621 0 0 1-.552.093c-.236 0-.44-.044-.613-.13a.971.971 0 0 1-.4-.356.974.974 0 0 1-.14-.52c0-.145.03-.272.091-.381.06-.11.142-.213.247-.308.096-.087.205-.174.328-.262Zm.292.358-.074.053a.915.915 0 0 0-.192.203.591.591 0 0 0-.034.6.514.514 0 0 0 .197.203.649.649 0 0 0 .32.073c.135 0 .266-.03.393-.09.064-.031.124-.068.181-.112l-.79-.93Zm.14-.65.219-.146a.793.793 0 0 0 .22-.2.444.444 0 0 0 .065-.25.354.354 0 0 0-.373-.342.363.363 0 0 0-.34.21.502.502 0 0 0 .015.435 1.441 1.441 0 0 0 .195.293Zm6.22 1.042h-.61a1.107 1.107 0 0 1-.113.394.553.553 0 0 1-.247.241.924.924 0 0 1-.422.083.749.749 0 0 1-.369-.085.707.707 0 0 1-.254-.242 1.193 1.193 0 0 1-.146-.373 2.371 2.371 0 0 1-.046-.489v-.3c0-.189.017-.356.05-.503.037-.148.09-.273.16-.373.07-.101.157-.178.26-.23a.81.81 0 0 1 .367-.078c.17 0 .31.03.415.088.106.057.186.14.24.249.055.109.09.24.107.393h.61a1.53 1.53 0 0 0-.2-.632 1.129 1.129 0 0 0-.454-.433 1.51 1.51 0 0 0-.718-.156c-.223 0-.424.04-.603.117-.177.078-.33.192-.457.34a1.533 1.533 0 0 0-.293.53c-.066.206-.1.437-.1.693v.295c0 .256.033.487.098.694.067.206.163.383.288.53.125.144.276.257.452.336.176.078.373.118.593.118.287 0 .53-.053.73-.157.2-.104.356-.246.466-.427.111-.182.176-.39.196-.623Zm3.39-.522v-.195c0-.269-.035-.509-.107-.72a1.56 1.56 0 0 0-.3-.545 1.275 1.275 0 0 0-.466-.344 1.47 1.47 0 0 0-.6-.12c-.219 0-.418.04-.599.12a1.303 1.303 0 0 0-.466.344 1.59 1.59 0 0 0-.303.544 2.239 2.239 0 0 0-.108.72v.196c0 .269.036.51.108.723.073.213.176.394.308.544a1.344 1.344 0 0 0 1.064.462c.22 0 .42-.04.6-.118.181-.08.336-.194.464-.344.13-.15.23-.331.3-.544.07-.214.106-.454.106-.723Zm-.612-.2v.2c0 .199-.02.374-.059.527a1.163 1.163 0 0 1-.166.389.73.73 0 0 1-.268.236.813.813 0 0 1-.364.079.807.807 0 0 1-.361-.079.77.77 0 0 1-.274-.236 1.163 1.163 0 0 1-.17-.389 2.14 2.14 0 0 1-.06-.527v-.2c0-.199.02-.374.06-.525.038-.153.095-.28.168-.383a.729.729 0 0 1 .27-.235.787.787 0 0 1 .362-.08c.135 0 .257.027.364.08.107.052.198.13.27.235.076.102.132.23.17.383.038.151.058.326.058.525Z" clip-rule="evenodd"/></svg>