<svg xmlns="http://www.w3.org/2000/svg" width="110" height="56" fill="none"><path fill="#8E8F99" d="M28.63 43.606c.245.274.376.616.37.968.012.23-.033.458-.132.67-.1.212-.25.4-.441.552a2.68 2.68 0 0 1-1.664.447h-2.925V40.11h2.865a2.647 2.647 0 0 1 1.587.408c.185.14.332.315.428.514.097.2.14.416.128.633.017.338-.101.671-.333.938a1.59 1.59 0 0 1-.872.48c.389.063.739.249.989.523Zm-3.431-.925h1.224c.279.018.555-.054.78-.204a.732.732 0 0 0 .208-.272.662.662 0 0 0 .054-.327.684.684 0 0 0-.055-.326.752.752 0 0 0-.204-.273 1.28 1.28 0 0 0-.802-.207h-1.205v1.609Zm2.123 2.351a.77.77 0 0 0 .226-.28.694.694 0 0 0 .064-.343.704.704 0 0 0-.067-.345.781.781 0 0 0-.23-.284 1.366 1.366 0 0 0-.832-.221H25.2v1.686H26.5c.293.015.583-.06.822-.213ZM34.487 46.243l-1.594-2.397h-.6v2.397h-1.37V40.11h2.596a2.752 2.752 0 0 1 1.806.522c.363.332.582.771.617 1.236a1.82 1.82 0 0 1-.424 1.301c-.32.33-.757.55-1.237.623l1.697 2.45h-1.491Zm-2.193-3.233h1.121c.779 0 1.168-.31 1.168-.928a.83.83 0 0 0-.062-.372.908.908 0 0 0-.224-.318 1.307 1.307 0 0 0-.882-.248h-1.134l.013 1.866ZM41.98 45.009h-2.732l-.482 1.234h-1.438l2.51-6.064h1.553l2.5 6.064h-1.438l-.473-1.234Zm-.366-.93-.998-2.587-.998 2.588h1.996ZM51.361 46.243H50l-3.051-4.17v4.17H45.59V40.11h1.358L50 44.304V40.11h1.361v6.133ZM59.128 44.775a2.82 2.82 0 0 1-1.231 1.081c-.593.27-1.25.402-1.914.387h-2.422V40.11h2.422a4.472 4.472 0 0 1 1.914.378c.52.236.95.61 1.23 1.07.28.498.427 1.05.427 1.608a3.28 3.28 0 0 1-.426 1.609Zm-1.558-.147a2.12 2.12 0 0 0 .602-1.463 2.12 2.12 0 0 0-.602-1.464 2.535 2.535 0 0 0-1.703-.521h-.945v3.97h.945a2.535 2.535 0 0 0 1.703-.522ZM42.832 6s17.567 5.97 17.194 14.61v14.614S42.473 29.251 42.84 20.611L42.832 6ZM75.677 31.803c3.317-2.056 7.155-3.329 11.16-3.703v-4.575c-4.615 1.602-8.53 4.506-11.16 8.278Z"/><path fill="#8E8F99" d="M73.683 33.181c2.716-4.922 7.423-8.72 13.155-10.614V9.386S61.82 17.89 62.349 30.194V51s1.115-.38 2.869-1.093c0-.665 0-1.336.08-2.01.517-5.712 3.534-11.005 8.385-14.716Z"/><path fill="#8E8F99" d="M71.304 40.91a19.57 19.57 0 0 1 .876-4.26c-3.022 3.205-4.85 7.18-5.232 11.37-.036.395-.056.79-.066 1.198a75.86 75.86 0 0 0 4.812-2.283 19.43 19.43 0 0 1-.39-6.025ZM72.3 40.985a18.564 18.564 0 0 0 .31 5.456c6.834-3.682 14.514-9.371 14.218-16.247v-.599c-4.883.492-9.452 2.414-13.004 5.47a18.817 18.817 0 0 0-1.524 5.92Z"/></svg>