<svg xmlns="http://www.w3.org/2000/svg" width="110" height="56" fill="none"><path fill="#8E8F99" fill-rule="evenodd" d="M52.114 4.935h-.137c-.21-.013-.42-.018-.63-.023h-.455c-.398 0-.802.01-1.205.03a.627.627 0 0 0-.09 0A28.275 28.275 0 0 0 39.08 7.625l-.432.208v22.142l1.012-.344c.888-.305 1.834-.58 2.813-.834a34.329 34.329 0 0 1 8.095-1.075v2.909c-.362.002-.713.012-1.065.03h-.084a32.36 32.36 0 0 0-6.228.956 31.633 31.633 0 0 0-7.42 2.892V6.112a29.728 29.728 0 0 1 7.784-3.166A29.794 29.794 0 0 1 50.892 2h.427c.511.013 1.01.036 1.477.071 1.234.087 2.457.282 3.656.583v2.863a22.624 22.624 0 0 0-3.542-.534l-.072-.006c-.247-.021-.494-.042-.724-.042Zm5.039 2.927c.635.048 1.292.07 1.958.07a31.467 31.467 0 0 0 7.713-.988A31.774 31.774 0 0 0 74.24 4.05v27.89a29.818 29.818 0 0 1-7.787 3.166 29.943 29.943 0 0 1-7.336.944 22.405 22.405 0 0 1-5.565-.656V7.323c.43.099.873.19 1.323.267.739.124 1.518.216 2.277.272Zm14.194.216-1.012.34c-.93.313-1.87.593-2.813.842a34.264 34.264 0 0 1-8.406 1.078c-.66 0-1.268-.017-1.855-.055l-.806-.054v22.777l.693.061c.642.056 1.305.084 1.973.084a26.884 26.884 0 0 0 6.62-.857 27.763 27.763 0 0 0 5.173-1.859l.433-.208V8.077Z" clip-rule="evenodd"/><path fill="#8E8F99" d="M37.737 44.212a1.493 1.493 0 0 0-1.126-.455 1.674 1.674 0 0 0-.65.122 1.464 1.464 0 0 0-.832.842c-.08.2-.119.413-.116.628v3.794c-.01.267.042.533.149.778.09.194.219.368.38.509.151.127.33.22.52.27.185.051.376.078.567.078.212.002.42-.043.612-.132a1.598 1.598 0 0 0 .96-1.465v-.425h-.992v.338a.881.881 0 0 1-.059.339.608.608 0 0 1-.144.213.697.697 0 0 1-.415.145.504.504 0 0 1-.465-.203.898.898 0 0 1-.132-.509v-3.537c-.006-.196.036-.39.122-.567a.506.506 0 0 1 .485-.229.526.526 0 0 1 .443.214.806.806 0 0 1 .165.508v.328h.981v-.386a1.786 1.786 0 0 0-.121-.664 1.563 1.563 0 0 0-.332-.534ZM43.629 44.17a1.765 1.765 0 0 0-1.129-.418c-.202 0-.402.037-.592.107A1.558 1.558 0 0 0 41 44.7c-.1.231-.149.482-.144.735v3.638c-.007.256.042.51.144.745.09.196.221.37.385.509.151.14.33.25.523.32.19.07.39.106.592.107a1.715 1.715 0 0 0 1.129-.427c.158-.142.285-.315.374-.509.102-.234.151-.489.144-.745v-3.639a1.771 1.771 0 0 0-.144-.734 1.644 1.644 0 0 0-.374-.532Zm-.463 4.904a.654.654 0 0 1-.198.527.726.726 0 0 1-.933 0 .653.653 0 0 1-.197-.527v-3.639a.656.656 0 0 1 .197-.526.727.727 0 0 1 .933 0 .651.651 0 0 1 .198.526v3.64ZM51.367 50.7v-6.89h-.954l-1.252 3.647h-.018l-1.262-3.646h-.944v6.888h.985v-4.19h.017l.964 2.962h.49l.972-2.962h.018v4.19h.984ZM56.958 44.294c-.152-.17-.343-.3-.557-.377a2.184 2.184 0 0 0-.713-.107h-1.462v6.89h.981v-2.691h.506c.306.014.611-.051.886-.188a1.43 1.43 0 0 0 .538-.527c.114-.183.19-.387.225-.6a4.9 4.9 0 0 0 .054-.783c.01-.33-.023-.662-.097-.984a1.465 1.465 0 0 0-.361-.633Zm-.506 2.1a.868.868 0 0 1-.091.359.552.552 0 0 1-.253.241 1.006 1.006 0 0 1-.463.087h-.448v-2.342h.506a.942.942 0 0 1 .443.086.557.557 0 0 1 .23.254c.053.121.083.252.086.384v.458c0 .16.01.326 0 .473h-.01ZM61.607 43.81h-.804l-1.518 6.89h.982l.288-1.48h1.338l.289 1.48h.981l-1.556-6.89Zm-.905 4.471.483-2.497h.018l.48 2.497h-.981ZM67.95 47.96h-.018l-1.483-4.15h-.943v6.89h.981v-4.143h.02l1.5 4.142h.924v-6.888h-.981v4.15ZM73.947 43.81l-.79 2.74h-.02l-.789-2.74h-1.04l1.349 3.978v2.911h.981v-2.911l1.349-3.977h-1.04ZM35 52.644h.473v1.328h.321v-1.328h.47v-.272H35v.272ZM38.977 52.372l-.62 1.6h.342l.132-.364h.637l.137.364h.349l-.635-1.6h-.342Zm-.05.967.217-.593.218.593h-.435ZM42.908 53.382h.37v.206a.613.613 0 0 1-.38.135.403.403 0 0 1-.339-.153.67.67 0 0 1-.119-.417c0-.356.155-.534.46-.534a.337.337 0 0 1 .363.255l.316-.062c-.069-.312-.294-.47-.678-.47a.804.804 0 0 0-.56.206.78.78 0 0 0-.23.615.872.872 0 0 0 .206.6.776.776 0 0 0 .607.235.96.96 0 0 0 .678-.255v-.63h-.694v.27ZM46.922 52.372H46.6v1.6h1.12V53.7h-.797v-1.328ZM50.318 52.372h-.324v1.6h.324v-1.6ZM53.637 53.44l-.655-1.068h-.314v1.6h.301v-1.046l.643 1.046h.32v-1.6h-.295v1.068ZM56.636 53.267h.797v-.272h-.797v-.35h.858v-.273h-1.181v1.6h1.214V53.7h-.89v-.433ZM63.912 53.003h-.63v-.63h-.321v1.599h.321v-.7h.63v.7h.321v-1.6h-.32v.63ZM66.93 53.267h.8v-.272h-.8v-.35h.86v-.273h-1.18v1.6h1.211V53.7h-.89v-.433ZM71.023 53.268c.279-.044.42-.191.42-.445a.383.383 0 0 0-.156-.356.904.904 0 0 0-.468-.094h-.678v1.599h.32v-.669h.064a.432.432 0 0 1 .2.036c.047.029.086.069.114.117l.349.508h.384l-.194-.312a1.114 1.114 0 0 0-.355-.384Zm-.323-.222h-.238v-.401h.253a.84.84 0 0 1 .326.038.208.208 0 0 1 .046.255.208.208 0 0 1-.061.07.912.912 0 0 1-.326.038ZM74.11 53.267h.797v-.272h-.797v-.35h.86v-.273h-1.184v1.6H75V53.7h-.89v-.433Z"/></svg>