<svg xmlns="http://www.w3.org/2000/svg" width="110" height="56" fill="none"><path fill="#8E8F99" d="M55.393 26.677a2.953 2.953 0 0 1-.606-1.992v-2.888c0-.886.2-1.559.602-2.019.402-.46 1.092-.69 2.07-.687.92 0 1.572.196 1.958.587.42.5.626 1.111.579 1.728v.679H58.35v-.688c.006-.225-.01-.45-.047-.673a.652.652 0 0 0-.235-.4.951.951 0 0 0-.596-.155 1.008 1.008 0 0 0-.627.165.77.77 0 0 0-.272.44 3.335 3.335 0 0 0-.065.714v3.505a1.79 1.79 0 0 0 .212.984.772.772 0 0 0 .328.239c.132.052.28.071.424.055.21.015.42-.042.582-.158a.706.706 0 0 0 .245-.426c.039-.233.056-.468.051-.703v-.71h1.645v.649a2.643 2.643 0 0 1-.569 1.815c-.378.43-1.021.644-1.968.644-.946 0-1.661-.23-2.066-.705ZM62.24 26.706c-.416-.45-.624-1.105-.624-1.971v-3.038c0-.858.208-1.508.623-1.948.416-.44 1.11-.66 2.084-.658.967 0 1.658.22 2.073.658.416.44.627 1.09.627 1.948v3.038c0 .858-.211 1.516-.633 1.968-.423.453-1.11.679-2.067.679-.957 0-1.665-.23-2.084-.676Zm2.849-.729c.149-.281.216-.59.197-.899v-3.72a1.651 1.651 0 0 0-.194-.88.776.776 0 0 0-.335-.243.907.907 0 0 0-.434-.051.92.92 0 0 0-.435.052.788.788 0 0 0-.338.241c-.15.276-.217.578-.197.882v3.737c-.021.31.047.618.197.9.096.094.214.17.347.222a1.161 1.161 0 0 0 .845 0c.133-.052.251-.128.347-.223v-.018ZM69 19.18h1.771l1.332 5.605 1.361-5.606h1.723l.174 8.09h-1.273l-.137-5.622-1.314 5.623h-1.021l-1.362-5.643-.126 5.643H68.84l.16-8.09ZM77.346 19.18h2.758c1.589 0 2.383.765 2.383 2.297 0 1.467-.836 2.2-2.509 2.197h-.94v3.596h-1.702l.01-8.09Zm2.356 3.457c.168.018.34.005.5-.039.163-.044.311-.118.436-.216a1.31 1.31 0 0 0 .246-.914 2.534 2.534 0 0 0-.082-.735.595.595 0 0 0-.126-.221.704.704 0 0 0-.215-.163 1.763 1.763 0 0 0-.759-.13h-.66v2.418h.66ZM84.942 19.18h1.829l1.876 8.09H87.06l-.371-1.866h-1.63l-.382 1.866h-1.61l1.875-8.09Zm1.563 5.287-.637-3.396-.636 3.396h1.273ZM90.162 19.18h1.191l2.281 4.615v-4.616h1.413v8.09h-1.133l-2.295-4.817v4.818h-1.46l.003-8.09ZM98.356 24.185l-1.896-4.994h1.597l1.157 3.208 1.086-3.208h1.563l-1.872 4.994v3.085h-1.635v-3.085ZM58.022 30.807v.423h-1.39v3.288h-.582V31.23h-1.396v-.423h3.367ZM62.376 34.518h-.45a.2.2 0 0 1-.125-.035.194.194 0 0 1-.075-.086l-.402-.88h-1.927l-.402.88a.243.243 0 0 1-.061.1.207.207 0 0 1-.126.035h-.45l1.703-3.71h.592l1.723 3.696Zm-2.82-1.378h1.608l-.681-1.51a2.674 2.674 0 0 1-.126-.35c-.024.07-.044.139-.065.197l-.061.156-.674 1.507ZM65.31 34.154c.107.004.214.004.32 0 .093-.009.184-.023.273-.045.083-.017.165-.04.245-.067.075-.026.15-.059.228-.091v-.835h-.68a.142.142 0 0 1-.05-.006.127.127 0 0 1-.043-.023.086.086 0 0 1-.026-.03.076.076 0 0 1-.008-.038v-.285h1.321v1.422a2.577 2.577 0 0 1-.718.303c-.14.035-.282.061-.426.076a5.153 5.153 0 0 1-.497.024 2.596 2.596 0 0 1-.858-.138 2.092 2.092 0 0 1-.68-.388 1.792 1.792 0 0 1-.44-.587 1.854 1.854 0 0 1-.157-.77 1.925 1.925 0 0 1 .154-.776c.098-.22.247-.42.439-.588.194-.167.426-.298.68-.385.292-.094.602-.141.913-.138.159 0 .317.011.474.033.138.02.274.05.405.094.119.038.233.087.34.147.105.058.203.122.296.194l-.163.229a.142.142 0 0 1-.055.05.17.17 0 0 1-.078.02.222.222 0 0 1-.105-.03 2.119 2.119 0 0 1-.167-.087 1.515 1.515 0 0 0-.228-.1 2.137 2.137 0 0 0-.314-.082 2.625 2.625 0 0 0-.432-.033 2.018 2.018 0 0 0-.657.103c-.19.066-.36.166-.5.294a1.29 1.29 0 0 0-.317.461 1.733 1.733 0 0 0 0 1.237c.074.175.19.334.34.467.14.128.31.228.497.294.217.064.446.09.675.074ZM70.737 34.094h1.86v.424h-2.428v-3.711h.582l-.014 3.287ZM74.53 34.518h-.582v-3.711h.583v3.71ZM76.696 30.825c.035.017.065.04.089.067l2.489 2.797a.858.858 0 0 1 0-.132v-2.765h.507v3.726h-.293a.276.276 0 0 1-.126-.02.33.33 0 0 1-.092-.071l-2.485-2.794V34.518h-.487v-3.711h.303c.033 0 .065.006.095.018ZM84.067 30.807v.408h-2.063v1.226h1.671v.393h-1.671V34.1h2.063v.409h-2.663v-3.702h2.663ZM23.058 7.892l25.852 6.334v22.196L23.06 30.09V7.892ZM21.4 6V31.17l29.165 7.148V13.15L21.4 6Z"/><path fill="#8E8F99" d="M37.031 50 7.863 42.846V17.68l29.168 7.151v25.17Z"/><path fill="#8E8F99" d="m21.884 7.607 25.514 6.255-10.85 9.365L11.03 16.97l10.854-9.363ZM21.4 6 7.863 17.68l29.168 7.151 13.534-11.68L21.4 6ZM38.672 48.584 50.564 38.32l-11.892-2.917v13.181Z"/></svg>