<svg width="16" height="16" viewBox="0 0 16 16" fill="none" xmlns="http://www.w3.org/2000/svg">
<g clip-path="url(#clip0_309402_2026)">
<path d="M15.9845 4.70392C15.9471 3.85378 15.8096 3.26932 15.6126 2.76287C15.4095 2.22529 15.0969 1.74399 14.6874 1.34389C14.2873 0.937561 13.8028 0.621826 13.2715 0.421835C12.7621 0.224897 12.1807 0.0874194 11.3306 0.0499365C10.4741 0.00927917 10.2022 -0.00012207 8.02988 -0.00012207C5.85758 -0.00012207 5.58568 0.00927917 4.73236 0.0467621C3.88222 0.084245 3.29775 0.221845 2.79143 0.418661C2.25373 0.621826 1.77243 0.934387 1.37233 1.34389C0.966003 1.74399 0.650389 2.22846 0.450277 2.75982C0.25334 3.26932 0.115862 3.85061 0.0783789 4.70075C0.0377215 5.55724 0.0283203 5.82914 0.0283203 8.00144C0.0283203 10.1737 0.0377215 10.4456 0.0752044 11.299C0.112687 12.1491 0.250287 12.7336 0.447225 13.24C0.650389 13.7776 0.966003 14.2589 1.37233 14.659C1.77243 15.0653 2.2569 15.3811 2.78826 15.581C3.29775 15.778 3.87904 15.9155 4.72931 15.9529C5.5825 15.9906 5.85453 15.9998 8.02682 15.9998C10.1991 15.9998 10.471 15.9906 11.3243 15.9529C12.1745 15.9155 12.7589 15.778 13.2653 15.581C14.3406 15.1653 15.1907 14.3152 15.6064 13.24C15.8032 12.7305 15.9408 12.1491 15.9783 11.299C16.0158 10.4456 16.0252 10.1737 16.0252 8.00144C16.0252 5.82914 16.022 5.55724 15.9845 4.70392ZM14.5437 11.2364C14.5093 12.0179 14.378 12.4398 14.2686 12.7211C13.9998 13.4181 13.4466 13.9714 12.7495 14.2402C12.4682 14.3496 12.0432 14.4809 11.2649 14.5152C10.421 14.5528 10.1679 14.562 8.03305 14.562C5.89824 14.562 5.64196 14.5528 4.8011 14.5152C4.0197 14.4809 3.59774 14.3496 3.31644 14.2402C2.96957 14.112 2.65383 13.9088 2.39756 13.6432C2.13188 13.3837 1.92871 13.0712 1.80052 12.7243C1.69112 12.443 1.55987 12.0179 1.52556 11.2396C1.48795 10.3957 1.47868 10.1425 1.47868 8.00767C1.47868 5.87285 1.48795 5.61658 1.52556 4.77584C1.55987 3.99443 1.69112 3.57248 1.80052 3.29117C1.92871 2.94418 2.13188 2.62857 2.40073 2.37217C2.66006 2.10649 2.97262 1.90333 3.31961 1.77525C3.60091 1.66585 4.02605 1.5346 4.80427 1.50017C5.64819 1.46269 5.90141 1.45329 8.0361 1.45329C10.1741 1.45329 10.4272 1.46269 11.2681 1.50017C12.0495 1.5346 12.4714 1.66585 12.7527 1.77525C13.0996 1.90333 13.4153 2.10649 13.6716 2.37217C13.9373 2.63162 14.1404 2.94418 14.2686 3.29117C14.378 3.57248 14.5093 3.99748 14.5437 4.77584C14.5812 5.61975 14.5906 5.87285 14.5906 8.00767C14.5906 10.1425 14.5812 10.3925 14.5437 11.2364Z" fill="#F4F4FD"/>
<path d="M8.0301 3.89124C5.76098 3.89124 3.91992 5.73217 3.91992 8.00141C3.91992 10.2707 5.76098 12.1116 8.0301 12.1116C10.2993 12.1116 12.1403 10.2707 12.1403 8.00141C12.1403 5.73217 10.2993 3.89124 8.0301 3.89124ZM8.0301 10.6676C6.55801 10.6676 5.36393 9.47362 5.36393 8.00141C5.36393 6.5292 6.55801 5.33524 8.0301 5.33524C9.50231 5.33524 10.6963 6.5292 10.6963 8.00141C10.6963 9.47362 9.50231 10.6676 8.0301 10.6676Z" fill="#F4F4FD"/>
<path d="M13.262 3.72871C13.262 4.2586 12.8323 4.68825 12.3023 4.68825C11.7724 4.68825 11.3428 4.2586 11.3428 3.72871C11.3428 3.19869 11.7724 2.76917 12.3023 2.76917C12.8323 2.76917 13.262 3.19869 13.262 3.72871Z" fill="#F4F4FD"/>
</g>
<defs>
<clipPath id="clip0_309402_2026">
<rect width="16" height="16" fill="white"/>
</clipPath>
</defs>
</svg>
