<svg width="16" height="16" viewBox="0 0 16 16" fill="none" xmlns="http://www.w3.org/2000/svg">
<g clip-path="url(#clip0_309402_2042)">
<path d="M15.9959 15.9999V15.9992H15.9999V10.1312C15.9999 7.26053 15.3819 5.04919 12.0259 5.04919C10.4125 5.04919 9.32985 5.93453 8.88785 6.77386H8.84118V5.31719H5.65918V15.9992H8.97252V10.7099C8.97252 9.31719 9.23652 7.97053 10.9612 7.97053C12.6605 7.97053 12.6859 9.55986 12.6859 10.7992V15.9999H15.9959Z" fill="#F4F4FD"/>
<path d="M0.263672 5.31787H3.58101V15.9999H0.263672V5.31787Z" fill="#F4F4FD"/>
<path d="M1.92133 -0.00012207C0.860667 -0.00012207 0 0.860545 0 1.92121C0 2.98188 0.860667 3.86055 1.92133 3.86055C2.982 3.86055 3.84267 2.98188 3.84267 1.92121C3.842 0.860545 2.98133 -0.00012207 1.92133 -0.00012207V-0.00012207Z" fill="#F4F4FD"/>
</g>
<defs>
<clipPath id="clip0_309402_2042">
<rect width="16" height="16" fill="white"/>
</clipPath>
</defs>
</svg>
