<svg xmlns="http://www.w3.org/2000/svg" width="116" height="24" fill="none"><path fill="#4D5AE5" d="M6.436 5.238h2.718l1.332 4.086 1.332-4.086h2.736l-2.178 5.94 1.296 3.402 3.204-9.36h3.222L15.112 18h-2.556l-2.07-5.004L8.434 18H5.86L.892 5.22h3.204l3.222 9.36 1.26-3.402-2.142-5.94Zm24.294 10.17V18h-8.982V5.22h8.82v2.592H24.7v2.484h5.04v2.394H24.7v2.718h6.03Zm12.9-.684c0 .732-.198 1.344-.594 1.836-.384.48-.906.84-1.566 1.08-.66.24-1.386.36-2.178.36h-6.228V5.22h7.11c.6 0 1.116.162 1.548.486.444.312.78.72 1.008 1.224.24.504.36 1.026.36 1.566 0 .6-.156 1.176-.468 1.728-.312.54-.768.948-1.368 1.224.732.216 1.308.6 1.728 1.152.432.552.648 1.26.648 2.124Zm-3.006-.594c0-.276-.054-.516-.162-.72a1.275 1.275 0 0 0-.432-.504.96.96 0 0 0-.612-.198h-3.402v2.79h3.276c.252 0 .474-.06.666-.18.204-.12.366-.282.486-.486.12-.204.18-.438.18-.702Zm-4.608-6.39v2.646h2.898c.216 0 .414-.048.594-.144.192-.096.348-.24.468-.432.12-.204.18-.456.18-.756 0-.288-.054-.528-.162-.72a.992.992 0 0 0-.396-.432 1.042 1.042 0 0 0-.576-.162h-3.006Z"/><path fill="#2E2F42" d="M53.892 8.964c-.036-.06-.162-.15-.378-.27a7.842 7.842 0 0 0-1.872-.792 4.238 4.238 0 0 0-1.152-.162c-.504 0-.894.09-1.17.27-.276.168-.414.432-.414.792 0 .288.102.516.306.684.216.168.522.318.918.45.396.12.882.264 1.458.432.816.216 1.524.48 2.124.792.6.3 1.056.69 1.368 1.17.324.48.486 1.116.486 1.908 0 .72-.132 1.332-.396 1.836a3.37 3.37 0 0 1-1.08 1.206c-.444.3-.954.522-1.53.666a7.952 7.952 0 0 1-1.782.198c-.624 0-1.266-.06-1.926-.18a12.008 12.008 0 0 1-1.872-.54 9 9 0 0 1-1.656-.864l1.296-2.574c.048.06.204.174.468.342.264.156.588.324.972.504.396.168.834.318 1.314.45.48.132.966.198 1.458.198.528 0 .918-.084 1.17-.252.264-.168.396-.402.396-.702a.854.854 0 0 0-.414-.756c-.264-.18-.63-.342-1.098-.486-.456-.144-.984-.306-1.584-.486-.78-.24-1.428-.51-1.944-.81-.504-.3-.882-.666-1.134-1.098-.24-.432-.36-.972-.36-1.62 0-.9.21-1.656.63-2.268a3.979 3.979 0 0 1 1.728-1.404 5.68 5.68 0 0 1 2.358-.486c.6 0 1.176.072 1.728.216a9.594 9.594 0 0 1 1.566.54c.492.216.93.432 1.314.648l-1.296 2.448Zm13.684-1.152h-3.888V18h-2.952V7.812H56.83V5.22h10.746v2.592Zm7.472 10.296c-1.02 0-1.89-.168-2.61-.504a4.875 4.875 0 0 1-1.764-1.404 6.292 6.292 0 0 1-.99-2.034 9.357 9.357 0 0 1-.306-2.412V5.22h2.952v6.534c0 .48.048.948.144 1.404.096.444.252.84.468 1.188.216.348.492.624.828.828.348.204.774.306 1.278.306.516 0 .948-.102 1.296-.306.348-.216.624-.498.828-.846.204-.36.354-.762.45-1.206.096-.444.144-.9.144-1.368V5.22h2.952v6.534c0 .888-.114 1.716-.342 2.484a5.877 5.877 0 0 1-1.008 2.034 4.628 4.628 0 0 1-1.764 1.35c-.708.324-1.56.486-2.556.486ZM83.545 18V5.22h4.77c1.404 0 2.574.288 3.51.864a5.432 5.432 0 0 1 2.142 2.304c.48.96.72 2.028.72 3.204 0 1.296-.264 2.424-.792 3.384a5.55 5.55 0 0 1-2.232 2.232c-.948.528-2.064.792-3.348.792h-4.77Zm8.136-6.408c0-.744-.132-1.398-.396-1.962a2.984 2.984 0 0 0-1.152-1.332c-.504-.324-1.11-.486-1.818-.486h-1.818v7.596h1.818c.72 0 1.326-.162 1.818-.486a3.216 3.216 0 0 0 1.152-1.368c.264-.588.396-1.242.396-1.962ZM96.97 18V5.22h2.952V18H96.97Zm11.534.108c-.96 0-1.83-.18-2.61-.54a6.604 6.604 0 0 1-1.998-1.476 6.94 6.94 0 0 1-1.278-2.088c-.3-.78-.45-1.584-.45-2.412 0-.852.156-1.662.468-2.43a6.869 6.869 0 0 1 1.332-2.052 6.202 6.202 0 0 1 4.59-1.962c.948 0 1.806.186 2.574.558.78.36 1.446.852 1.998 1.476a6.706 6.706 0 0 1 1.296 2.106c.3.768.45 1.554.45 2.358 0 .852-.156 1.662-.468 2.43a6.649 6.649 0 0 1-1.332 2.07 6.657 6.657 0 0 1-2.034 1.44c-.768.348-1.614.522-2.538.522Zm-3.33-6.48c0 .492.072.972.216 1.44.144.456.354.864.63 1.224.288.36.642.648 1.062.864.42.216.9.324 1.44.324.564 0 1.056-.108 1.476-.324.42-.228.768-.528 1.044-.9s.48-.786.612-1.242a4.81 4.81 0 0 0 0-2.844 3.745 3.745 0 0 0-.648-1.224 2.965 2.965 0 0 0-1.062-.864 3.213 3.213 0 0 0-1.422-.306c-.564 0-1.056.108-1.476.324-.408.216-.756.51-1.044.882a3.91 3.91 0 0 0-.63 1.242 5.024 5.024 0 0 0-.198 1.404Z"/></svg>